<svg width="86" height="86" viewBox="0 0 86 86" fill="none" xmlns="http://www.w3.org/2000/svg">
<circle cx="43" cy="43" r="43" fill="url(#paint0_linear_60_12)"/>
<path d="M35.5127 48.3726C35.5127 47.8521 35.4326 47.3849 35.2725 46.9712C35.1257 46.5441 34.8454 46.1571 34.4316 45.8101C34.0179 45.4497 33.4373 45.096 32.6899 44.749C31.9425 44.402 30.9749 44.0417 29.7871 43.668C28.4658 43.2409 27.2113 42.7604 26.0234 42.2266C24.849 41.6927 23.8079 41.0721 22.9004 40.3647C22.0062 39.644 21.2988 38.8099 20.7783 37.8623C20.2712 36.9147 20.0176 35.8136 20.0176 34.5591C20.0176 33.3446 20.2845 32.2435 20.8184 31.2559C21.3522 30.2549 22.0996 29.4007 23.0605 28.6934C24.0215 27.9727 25.1559 27.4188 26.4639 27.0317C27.7852 26.6447 29.2332 26.4512 30.8081 26.4512C32.9569 26.4512 34.832 26.8382 36.4336 27.6123C38.0352 28.3864 39.2764 29.4474 40.1572 30.7954C41.0514 32.1434 41.4985 33.6849 41.4985 35.4199H35.5327C35.5327 34.5658 35.3525 33.8184 34.9922 33.1777C34.6452 32.5238 34.1113 32.0099 33.3906 31.6362C32.6833 31.2625 31.7891 31.0757 30.708 31.0757C29.667 31.0757 28.7995 31.2358 28.1055 31.5562C27.4115 31.8631 26.891 32.2835 26.5439 32.8174C26.1969 33.3379 26.0234 33.9251 26.0234 34.5791C26.0234 35.0729 26.1436 35.52 26.3838 35.9204C26.6374 36.3208 27.0111 36.6945 27.5049 37.0415C27.9987 37.3885 28.606 37.7155 29.3267 38.0225C30.0474 38.3294 30.8815 38.6297 31.8291 38.9233C33.4173 39.4038 34.812 39.9443 36.0132 40.5449C37.2277 41.1455 38.242 41.8195 39.0562 42.5669C39.8703 43.3143 40.4842 44.1618 40.8979 45.1094C41.3117 46.057 41.5186 47.1313 41.5186 48.3325C41.5186 49.6004 41.2716 50.7349 40.7778 51.7358C40.284 52.7368 39.57 53.5843 38.6357 54.2783C37.7015 54.9723 36.5871 55.4995 35.2925 55.8599C33.9979 56.2202 32.5498 56.4004 30.9482 56.4004C29.5068 56.4004 28.0854 56.2135 26.6841 55.8398C25.2827 55.4528 24.0081 54.8722 22.8604 54.0981C21.7259 53.3241 20.8184 52.3364 20.1377 51.1353C19.457 49.9341 19.1167 48.5127 19.1167 46.8711H25.1426C25.1426 47.7786 25.2827 48.5461 25.563 49.1733C25.8433 49.8006 26.237 50.3078 26.7441 50.6948C27.2646 51.0819 27.8786 51.3621 28.5859 51.5356C29.3066 51.7091 30.0941 51.7959 30.9482 51.7959C31.9893 51.7959 32.8434 51.6491 33.5107 51.3555C34.1914 51.0618 34.6919 50.6548 35.0122 50.1343C35.3459 49.6138 35.5127 49.0265 35.5127 48.3726ZM60.7773 48.3726C60.7773 47.8521 60.6973 47.3849 60.5371 46.9712C60.3903 46.5441 60.11 46.1571 59.6963 45.8101C59.2826 45.4497 58.702 45.096 57.9546 44.749C57.2072 44.402 56.2396 44.0417 55.0518 43.668C53.7305 43.2409 52.4759 42.7604 51.2881 42.2266C50.1136 41.6927 49.0726 41.0721 48.165 40.3647C47.2708 39.644 46.5635 38.8099 46.043 37.8623C45.5358 36.9147 45.2822 35.8136 45.2822 34.5591C45.2822 33.3446 45.5492 32.2435 46.083 31.2559C46.6169 30.2549 47.3643 29.4007 48.3252 28.6934C49.2861 27.9727 50.4206 27.4188 51.7285 27.0317C53.0498 26.6447 54.4979 26.4512 56.0728 26.4512C58.2215 26.4512 60.0967 26.8382 61.6982 27.6123C63.2998 28.3864 64.541 29.4474 65.4219 30.7954C66.3161 32.1434 66.7632 33.6849 66.7632 35.4199H60.7974C60.7974 34.5658 60.6172 33.8184 60.2568 33.1777C59.9098 32.5238 59.376 32.0099 58.6553 31.6362C57.9479 31.2625 57.0537 31.0757 55.9727 31.0757C54.9316 31.0757 54.0641 31.2358 53.3701 31.5562C52.6761 31.8631 52.1556 32.2835 51.8086 32.8174C51.4616 33.3379 51.2881 33.9251 51.2881 34.5791C51.2881 35.0729 51.4082 35.52 51.6484 35.9204C51.902 36.3208 52.2757 36.6945 52.7695 37.0415C53.2633 37.3885 53.8706 37.7155 54.5913 38.0225C55.312 38.3294 56.1462 38.6297 57.0938 38.9233C58.682 39.4038 60.0767 39.9443 61.2778 40.5449C62.4924 41.1455 63.5067 41.8195 64.3208 42.5669C65.1349 43.3143 65.7489 44.1618 66.1626 45.1094C66.5763 46.057 66.7832 47.1313 66.7832 48.3325C66.7832 49.6004 66.5363 50.7349 66.0425 51.7358C65.5487 52.7368 64.8346 53.5843 63.9004 54.2783C62.9661 54.9723 61.8517 55.4995 60.5571 55.8599C59.2625 56.2202 57.8145 56.4004 56.2129 56.4004C54.7715 56.4004 53.3501 56.2135 51.9487 55.8398C50.5474 55.4528 49.2728 54.8722 48.125 54.0981C46.9906 53.3241 46.083 52.3364 45.4023 51.1353C44.7217 49.9341 44.3813 48.5127 44.3813 46.8711H50.4072C50.4072 47.7786 50.5474 48.5461 50.8276 49.1733C51.1079 49.8006 51.5016 50.3078 52.0088 50.6948C52.5293 51.0819 53.1432 51.3621 53.8506 51.5356C54.5713 51.7091 55.3587 51.7959 56.2129 51.7959C57.2539 51.7959 58.1081 51.6491 58.7754 51.3555C59.4561 51.0618 59.9565 50.6548 60.2769 50.1343C60.6105 49.6138 60.7773 49.0265 60.7773 48.3726Z" fill="#EBFBFF"/>
<defs>
<linearGradient id="paint0_linear_60_12" x1="43" y1="0" x2="43" y2="86" gradientUnits="userSpaceOnUse">
<stop offset="0.05" stop-color="#910C0C"/>
<stop offset="1" stop-color="#DF650D"/>
</linearGradient>
</defs>
</svg>
