<svg width="227" height="225" viewBox="0 0 227 225" fill="none" xmlns="http://www.w3.org/2000/svg">
<circle cx="112.994" cy="108.994" r="77.4935" fill="white" stroke="black" stroke-width="5"/>
<g filter="url(#filter0_d_17_203)">
<ellipse cx="113.5" cy="108.994" rx="73.4118" ry="72.9055" fill="white"/>
</g>
<path d="M100.196 119.659C100.196 118.783 100.061 117.997 99.7916 117.3C99.5445 116.582 99.0729 115.93 98.3766 115.346C97.6803 114.74 96.7032 114.145 95.4454 113.561C94.1876 112.977 92.5592 112.37 90.5602 111.741C88.3365 111.023 86.2252 110.214 84.2262 109.316C82.2496 108.417 80.4977 107.373 78.9703 106.182C77.4654 104.969 76.275 103.566 75.399 101.971C74.5455 100.376 74.1188 98.5231 74.1188 96.4117C74.1188 94.3678 74.568 92.5148 75.4664 90.8527C76.3649 89.1681 77.6227 87.7306 79.2399 86.5402C80.857 85.3273 82.7662 84.3951 84.9674 83.7438C87.191 83.0924 89.628 82.7667 92.2784 82.7667C95.8946 82.7667 99.0504 83.4181 101.746 84.7208C104.441 86.0236 106.53 87.8092 108.012 90.0778C109.517 92.3463 110.27 94.9406 110.27 97.8605H100.23C100.23 96.423 99.9264 95.1652 99.3199 94.087C98.7359 92.9865 97.8375 92.1217 96.6246 91.4928C95.4342 90.8639 93.9293 90.5494 92.11 90.5494C90.358 90.5494 88.8981 90.819 87.7301 91.358C86.5621 91.8746 85.6861 92.5822 85.1022 93.4806C84.5182 94.3566 84.2262 95.3448 84.2262 96.4454C84.2262 97.2765 84.4283 98.0289 84.8326 98.7028C85.2594 99.3766 85.8883 100.005 86.7193 100.589C87.5504 101.173 88.5724 101.724 89.7853 102.24C90.9982 102.757 92.402 103.262 93.9967 103.756C96.6695 104.565 99.0167 105.475 101.038 106.485C103.082 107.496 104.789 108.63 106.159 109.888C107.529 111.146 108.563 112.572 109.259 114.167C109.955 115.762 110.303 117.57 110.303 119.591C110.303 121.725 109.888 123.634 109.057 125.319C108.226 127.004 107.024 128.43 105.452 129.598C103.88 130.766 102.004 131.653 99.8253 132.259C97.6466 132.866 95.2096 133.169 92.5143 133.169C90.0885 133.169 87.6964 132.855 85.338 132.226C82.9796 131.574 80.8346 130.597 78.9029 129.295C76.9938 127.992 75.4664 126.33 74.3209 124.308C73.1754 122.287 72.6026 119.895 72.6026 117.132H82.7438C82.7438 118.659 82.9796 119.951 83.4513 121.006C83.923 122.062 84.5856 122.916 85.4391 123.567C86.315 124.218 87.3483 124.69 88.5387 124.982C89.7516 125.274 91.0768 125.42 92.5143 125.42C94.2662 125.42 95.7037 125.173 96.8268 124.679C97.9723 124.185 98.8146 123.5 99.3536 122.624C99.9151 121.748 100.196 120.759 100.196 119.659ZM142.714 119.659C142.714 118.783 142.58 117.997 142.31 117.3C142.063 116.582 141.591 115.93 140.895 115.346C140.199 114.74 139.222 114.145 137.964 113.561C136.706 112.977 135.078 112.37 133.079 111.741C130.855 111.023 128.744 110.214 126.745 109.316C124.768 108.417 123.016 107.373 121.489 106.182C119.984 104.969 118.794 103.566 117.918 101.971C117.064 100.376 116.637 98.5231 116.637 96.4117C116.637 94.3678 117.087 92.5148 117.985 90.8527C118.883 89.1681 120.141 87.7306 121.758 86.5402C123.376 85.3273 125.285 84.3951 127.486 83.7438C129.71 83.0924 132.147 82.7667 134.797 82.7667C138.413 82.7667 141.569 83.4181 144.264 84.7208C146.96 86.0236 149.048 87.8092 150.531 90.0778C152.036 92.3463 152.788 94.9406 152.788 97.8605H142.748C142.748 96.423 142.445 95.1652 141.838 94.087C141.255 92.9865 140.356 92.1217 139.143 91.4928C137.953 90.8639 136.448 90.5494 134.629 90.5494C132.877 90.5494 131.417 90.819 130.249 91.358C129.081 91.8746 128.205 92.5822 127.621 93.4806C127.037 94.3566 126.745 95.3448 126.745 96.4454C126.745 97.2765 126.947 98.0289 127.351 98.7028C127.778 99.3766 128.407 100.005 129.238 100.589C130.069 101.173 131.091 101.724 132.304 102.24C133.517 102.757 134.921 103.262 136.515 103.756C139.188 104.565 141.535 105.475 143.557 106.485C145.601 107.496 147.308 108.63 148.678 109.888C150.048 111.146 151.081 112.572 151.777 114.167C152.474 115.762 152.822 117.57 152.822 119.591C152.822 121.725 152.406 123.634 151.575 125.319C150.744 127.004 149.543 128.43 147.97 129.598C146.398 130.766 144.523 131.653 142.344 132.259C140.165 132.866 137.728 133.169 135.033 133.169C132.607 133.169 130.215 132.855 127.857 132.226C125.498 131.574 123.353 130.597 121.421 129.295C119.512 127.992 117.985 126.33 116.839 124.308C115.694 122.287 115.121 119.895 115.121 117.132H125.262C125.262 118.659 125.498 119.951 125.97 121.006C126.442 122.062 127.104 122.916 127.958 123.567C128.834 124.218 129.867 124.69 131.057 124.982C132.27 125.274 133.595 125.42 135.033 125.42C136.785 125.42 138.222 125.173 139.345 124.679C140.491 124.185 141.333 123.5 141.872 122.624C142.434 121.748 142.714 120.759 142.714 119.659Z" fill="#1F2854"/>
<defs>
<filter id="filter0_d_17_203" x="0.988075" y="0.988045" width="225.024" height="224.011" filterUnits="userSpaceOnUse" color-interpolation-filters="sRGB">
<feFlood flood-opacity="0" result="BackgroundImageFix"/>
<feColorMatrix in="SourceAlpha" type="matrix" values="0 0 0 0 0 0 0 0 0 0 0 0 0 0 0 0 0 0 127 0" result="hardAlpha"/>
<feOffset dy="4"/>
<feGaussianBlur stdDeviation="19.55"/>
<feComposite in2="hardAlpha" operator="out"/>
<feColorMatrix type="matrix" values="0 0 0 0 0 0 0 0 0 0 0 0 0 0 0 0 0 0 0.25 0"/>
<feBlend mode="normal" in2="BackgroundImageFix" result="effect1_dropShadow_17_203"/>
<feBlend mode="normal" in="SourceGraphic" in2="effect1_dropShadow_17_203" result="shape"/>
</filter>
</defs>
</svg>
